<svg xmlns="http://www.w3.org/2000/svg" viewBox="0 0 400 400">
  <defs>
    <pattern id="mandalaPattern" x="0" y="0" width="200" height="200" patternUnits="userSpaceOnUse">
      <!-- Dark background -->
      <rect width="200" height="200" fill="#0a0a0a"/>
      
      <!-- Mandala 1 - Top Left -->
      <g transform="translate(50, 50)" opacity="0.4">
        <circle cx="0" cy="0" r="45" fill="none" stroke="#333" stroke-width="0.5"/>
        <circle cx="0" cy="0" r="35" fill="none" stroke="#444" stroke-width="0.5"/>
        <circle cx="0" cy="0" r="25" fill="none" stroke="#333" stroke-width="0.5"/>
        <circle cx="0" cy="0" r="15" fill="none" stroke="#444" stroke-width="0.5"/>
        <circle cx="0" cy="0" r="5" fill="none" stroke="#333" stroke-width="0.5"/>
        
        <!-- Radiating lines -->
        <g stroke="#333" stroke-width="0.3">
          <line x1="0" y1="-45" x2="0" y2="-35" transform="rotate(0)"/>
          <line x1="0" y1="-45" x2="0" y2="-35" transform="rotate(30)"/>
          <line x1="0" y1="-45" x2="0" y2="-35" transform="rotate(60)"/>
          <line x1="0" y1="-45" x2="0" y2="-35" transform="rotate(90)"/>
          <line x1="0" y1="-45" x2="0" y2="-35" transform="rotate(120)"/>
          <line x1="0" y1="-45" x2="0" y2="-35" transform="rotate(150)"/>
          <line x1="0" y1="-45" x2="0" y2="-35" transform="rotate(180)"/>
          <line x1="0" y1="-45" x2="0" y2="-35" transform="rotate(210)"/>
          <line x1="0" y1="-45" x2="0" y2="-35" transform="rotate(240)"/>
          <line x1="0" y1="-45" x2="0" y2="-35" transform="rotate(270)"/>
          <line x1="0" y1="-45" x2="0" y2="-35" transform="rotate(300)"/>
          <line x1="0" y1="-45" x2="0" y2="-35" transform="rotate(330)"/>
        </g>
        
        <!-- Decorative elements -->
        <g fill="#333" opacity="0.3">
          <circle cx="0" cy="-30" r="1" transform="rotate(0)"/>
          <circle cx="0" cy="-30" r="1" transform="rotate(45)"/>
          <circle cx="0" cy="-30" r="1" transform="rotate(90)"/>
          <circle cx="0" cy="-30" r="1" transform="rotate(135)"/>
          <circle cx="0" cy="-30" r="1" transform="rotate(180)"/>
          <circle cx="0" cy="-30" r="1" transform="rotate(225)"/>
          <circle cx="0" cy="-30" r="1" transform="rotate(270)"/>
          <circle cx="0" cy="-30" r="1" transform="rotate(315)"/>
        </g>
      </g>
      
      <!-- Mandala 2 - Top Right -->
      <g transform="translate(150, 50)" opacity="0.4">
        <circle cx="0" cy="0" r="45" fill="none" stroke="#333" stroke-width="0.5"/>
        <circle cx="0" cy="0" r="35" fill="none" stroke="#444" stroke-width="0.5"/>
        <circle cx="0" cy="0" r="25" fill="none" stroke="#333" stroke-width="0.5"/>
        <circle cx="0" cy="0" r="15" fill="none" stroke="#444" stroke-width="0.5"/>
        <circle cx="0" cy="0" r="5" fill="none" stroke="#333" stroke-width="0.5"/>
        
        <!-- Radiating lines -->
        <g stroke="#333" stroke-width="0.3">
          <line x1="0" y1="-45" x2="0" y2="-35" transform="rotate(15)"/>
          <line x1="0" y1="-45" x2="0" y2="-35" transform="rotate(45)"/>
          <line x1="0" y1="-45" x2="0" y2="-35" transform="rotate(75)"/>
          <line x1="0" y1="-45" x2="0" y2="-35" transform="rotate(105)"/>
          <line x1="0" y1="-45" x2="0" y2="-35" transform="rotate(135)"/>
          <line x1="0" y1="-45" x2="0" y2="-35" transform="rotate(165)"/>
          <line x1="0" y1="-45" x2="0" y2="-35" transform="rotate(195)"/>
          <line x1="0" y1="-45" x2="0" y2="-35" transform="rotate(225)"/>
          <line x1="0" y1="-45" x2="0" y2="-35" transform="rotate(255)"/>
          <line x1="0" y1="-45" x2="0" y2="-35" transform="rotate(285)"/>
          <line x1="0" y1="-45" x2="0" y2="-35" transform="rotate(315)"/>
          <line x1="0" y1="-45" x2="0" y2="-35" transform="rotate(345)"/>
        </g>
      </g>
      
      <!-- Mandala 3 - Bottom Left -->
      <g transform="translate(50, 150)" opacity="0.4">
        <circle cx="0" cy="0" r="45" fill="none" stroke="#333" stroke-width="0.5"/>
        <circle cx="0" cy="0" r="35" fill="none" stroke="#444" stroke-width="0.5"/>
        <circle cx="0" cy="0" r="25" fill="none" stroke="#333" stroke-width="0.5"/>
        <circle cx="0" cy="0" r="15" fill="none" stroke="#444" stroke-width="0.5"/>
        <circle cx="0" cy="0" r="5" fill="none" stroke="#333" stroke-width="0.5"/>
        
        <!-- Radiating lines -->
        <g stroke="#333" stroke-width="0.3">
          <line x1="0" y1="-45" x2="0" y2="-35" transform="rotate(22.5)"/>
          <line x1="0" y1="-45" x2="0" y2="-35" transform="rotate(67.5)"/>
          <line x1="0" y1="-45" x2="0" y2="-35" transform="rotate(112.5)"/>
          <line x1="0" y1="-45" x2="0" y2="-35" transform="rotate(157.5)"/>
          <line x1="0" y1="-45" x2="0" y2="-35" transform="rotate(202.5)"/>
          <line x1="0" y1="-45" x2="0" y2="-35" transform="rotate(247.5)"/>
          <line x1="0" y1="-45" x2="0" y2="-35" transform="rotate(292.5)"/>
          <line x1="0" y1="-45" x2="0" y2="-35" transform="rotate(337.5)"/>
        </g>
      </g>
      
      <!-- Mandala 4 - Bottom Right -->
      <g transform="translate(150, 150)" opacity="0.4">
        <circle cx="0" cy="0" r="45" fill="none" stroke="#333" stroke-width="0.5"/>
        <circle cx="0" cy="0" r="35" fill="none" stroke="#444" stroke-width="0.5"/>
        <circle cx="0" cy="0" r="25" fill="none" stroke="#333" stroke-width="0.5"/>
        <circle cx="0" cy="0" r="15" fill="none" stroke="#444" stroke-width="0.5"/>
        <circle cx="0" cy="0" r="5" fill="none" stroke="#333" stroke-width="0.5"/>
        
        <!-- Radiating lines -->
        <g stroke="#333" stroke-width="0.3">
          <line x1="0" y1="-45" x2="0" y2="-35" transform="rotate(7.5)"/>
          <line x1="0" y1="-45" x2="0" y2="-35" transform="rotate(37.5)"/>
          <line x1="0" y1="-45" x2="0" y2="-35" transform="rotate(82.5)"/>
          <line x1="0" y1="-45" x2="0" y2="-35" transform="rotate(127.5)"/>
          <line x1="0" y1="-45" x2="0" y2="-35" transform="rotate(172.5)"/>
          <line x1="0" y1="-45" x2="0" y2="-35" transform="rotate(217.5)"/>
          <line x1="0" y1="-45" x2="0" y2="-35" transform="rotate(262.5)"/>
          <line x1="0" y1="-45" x2="0" y2="-35" transform="rotate(307.5)"/>
        </g>
      </g>
      
      <!-- Small decorative dots scattered -->
      <g fill="#333" opacity="0.2">
        <circle cx="25" cy="25" r="0.5"/>
        <circle cx="175" cy="25" r="0.5"/>
        <circle cx="25" cy="175" r="0.5"/>
        <circle cx="175" cy="175" r="0.5"/>
        <circle cx="100" cy="25" r="0.5"/>
        <circle cx="100" cy="175" r="0.5"/>
        <circle cx="25" cy="100" r="0.5"/>
        <circle cx="175" cy="100" r="0.5"/>
      </g>
    </pattern>
  </defs>
  
  <rect width="400" height="400" fill="url(#mandalaPattern)"/>
</svg>
